<mxfile host="app.diagrams.net" agent="Mozilla/5.0 (Windows NT 10.0; Win64; x64) AppleWebKit/537.36 (KHTML, like Gecko) Chrome/129.0.0.0 Safari/537.36 Edg/129.0.0.0" version="24.7.17">
  <diagram name="第 1 页" id="Ptvhk-JyKTcRj7Zm97Kh">
    <mxGraphModel dx="1152" dy="730" grid="1" gridSize="10" guides="1" tooltips="1" connect="1" arrows="1" fold="1" page="1" pageScale="1" pageWidth="827" pageHeight="1169" math="0" shadow="0">
      <root>
        <mxCell id="0" />
        <mxCell id="1" parent="0" />
        <mxCell id="1U4nZc6JwYDM5h0k5hcb-1" value="&lt;div style=&quot;&quot;&gt;&lt;b style=&quot;background-color: initial;&quot;&gt;Test Settings:&lt;/b&gt;&lt;/div&gt;&lt;blockquote style=&quot;margin: 0 0 0 40px; border: none; padding: 0px;&quot;&gt;&lt;div&gt;CC Scheme Selection&lt;/div&gt;&lt;div&gt;Benchmark Info:&lt;/div&gt;&lt;div&gt;&lt;span style=&quot;white-space: pre;&quot;&gt;&#x9;&lt;/span&gt;TXs&lt;/div&gt;&lt;div&gt;&lt;span style=&quot;white-space: pre;&quot;&gt;&#x9;&lt;/span&gt;Benchmark Arguments (e.g. W, theta in YCSB, warehouse num in TPC-C)&lt;/div&gt;&lt;div&gt;&lt;span style=&quot;white-space: pre;&quot;&gt;&#x9;&lt;/span&gt;Table Schema&lt;/div&gt;&lt;div&gt;Batch Info:&lt;/div&gt;&lt;div&gt;&lt;span style=&quot;white-space: pre;&quot;&gt;&#x9;&lt;/span&gt;Batch Size&lt;/div&gt;&lt;div&gt;&lt;span style=&quot;white-space: pre;&quot;&gt;&#x9;&lt;/span&gt;Block Size&lt;/div&gt;&lt;div&gt;&lt;span style=&quot;white-space: pre;&quot;&gt;&#x9;&lt;/span&gt;Warp Density&lt;/div&gt;&lt;/blockquote&gt;" style="rounded=0;whiteSpace=wrap;html=1;align=left;" vertex="1" parent="1">
          <mxGeometry x="335" y="770" width="440" height="170" as="geometry" />
        </mxCell>
        <mxCell id="1U4nZc6JwYDM5h0k5hcb-2" value="Scheduler" style="rounded=1;whiteSpace=wrap;html=1;" vertex="1" parent="1">
          <mxGeometry x="360" y="690" width="390" height="50" as="geometry" />
        </mxCell>
        <mxCell id="1U4nZc6JwYDM5h0k5hcb-44" style="edgeStyle=orthogonalEdgeStyle;rounded=0;orthogonalLoop=1;jettySize=auto;html=1;exitX=0.5;exitY=0;exitDx=0;exitDy=0;entryX=0.5;entryY=1;entryDx=0;entryDy=0;" edge="1" parent="1" source="1U4nZc6JwYDM5h0k5hcb-3" target="1U4nZc6JwYDM5h0k5hcb-14">
          <mxGeometry relative="1" as="geometry" />
        </mxCell>
        <mxCell id="1U4nZc6JwYDM5h0k5hcb-3" value="" style="rounded=0;whiteSpace=wrap;html=1;" vertex="1" parent="1">
          <mxGeometry x="60" y="520" width="220" height="150" as="geometry" />
        </mxCell>
        <mxCell id="1U4nZc6JwYDM5h0k5hcb-4" value="CC&lt;div&gt;Schemes&lt;/div&gt;" style="rounded=0;whiteSpace=wrap;html=1;" vertex="1" parent="1">
          <mxGeometry x="70" y="532.5" width="60" height="125" as="geometry" />
        </mxCell>
        <mxCell id="1U4nZc6JwYDM5h0k5hcb-6" value="TX&lt;div&gt;Templates&lt;/div&gt;" style="rounded=0;whiteSpace=wrap;html=1;" vertex="1" parent="1">
          <mxGeometry x="140" y="532.5" width="60" height="125" as="geometry" />
        </mxCell>
        <mxCell id="1U4nZc6JwYDM5h0k5hcb-7" value="GPU&lt;div&gt;Operator&lt;/div&gt;&lt;div&gt;Templates&lt;/div&gt;" style="rounded=0;whiteSpace=wrap;html=1;" vertex="1" parent="1">
          <mxGeometry x="210" y="532.5" width="60" height="125" as="geometry" />
        </mxCell>
        <mxCell id="1U4nZc6JwYDM5h0k5hcb-8" value="" style="rounded=1;whiteSpace=wrap;html=1;" vertex="1" parent="1">
          <mxGeometry x="450" y="510" width="220" height="110" as="geometry" />
        </mxCell>
        <mxCell id="1U4nZc6JwYDM5h0k5hcb-9" value="Table&lt;div&gt;Generator&lt;/div&gt;" style="rounded=1;whiteSpace=wrap;html=1;" vertex="1" parent="1">
          <mxGeometry x="460" y="540" width="60" height="70" as="geometry" />
        </mxCell>
        <mxCell id="1U4nZc6JwYDM5h0k5hcb-10" value="Index&lt;div&gt;Generator&lt;/div&gt;" style="rounded=1;whiteSpace=wrap;html=1;" vertex="1" parent="1">
          <mxGeometry x="530" y="540" width="60" height="70" as="geometry" />
        </mxCell>
        <mxCell id="1U4nZc6JwYDM5h0k5hcb-11" value="TX&lt;div&gt;Generator&lt;/div&gt;" style="rounded=1;whiteSpace=wrap;html=1;" vertex="1" parent="1">
          <mxGeometry x="600" y="540" width="60" height="70" as="geometry" />
        </mxCell>
        <mxCell id="1U4nZc6JwYDM5h0k5hcb-12" value="CPU Executor" style="text;html=1;align=center;verticalAlign=middle;whiteSpace=wrap;rounded=0;" vertex="1" parent="1">
          <mxGeometry x="460" y="510" width="80" height="30" as="geometry" />
        </mxCell>
        <mxCell id="1U4nZc6JwYDM5h0k5hcb-13" value="CPU Operators" style="rounded=0;whiteSpace=wrap;html=1;" vertex="1" parent="1">
          <mxGeometry x="423.5" y="637.5" width="90" height="32.5" as="geometry" />
        </mxCell>
        <mxCell id="1U4nZc6JwYDM5h0k5hcb-14" value="" style="rounded=1;whiteSpace=wrap;html=1;" vertex="1" parent="1">
          <mxGeometry x="237.5" y="370" width="165" height="110" as="geometry" />
        </mxCell>
        <mxCell id="1U4nZc6JwYDM5h0k5hcb-15" value="NVRTC" style="rounded=1;whiteSpace=wrap;html=1;" vertex="1" parent="1">
          <mxGeometry x="252.5" y="400" width="135" height="30" as="geometry" />
        </mxCell>
        <mxCell id="1U4nZc6JwYDM5h0k5hcb-16" value="Code Constructor" style="rounded=1;whiteSpace=wrap;html=1;" vertex="1" parent="1">
          <mxGeometry x="252.5" y="440" width="135" height="30" as="geometry" />
        </mxCell>
        <mxCell id="1U4nZc6JwYDM5h0k5hcb-17" value="GPU Code Generator" style="text;html=1;align=center;verticalAlign=middle;whiteSpace=wrap;rounded=0;" vertex="1" parent="1">
          <mxGeometry x="242.5" y="370" width="120" height="30" as="geometry" />
        </mxCell>
        <mxCell id="1U4nZc6JwYDM5h0k5hcb-18" value="" style="rounded=0;whiteSpace=wrap;html=1;" vertex="1" parent="1">
          <mxGeometry x="447.5" y="380" width="165" height="100" as="geometry" />
        </mxCell>
        <mxCell id="1U4nZc6JwYDM5h0k5hcb-19" value="Tables" style="rounded=0;whiteSpace=wrap;html=1;" vertex="1" parent="1">
          <mxGeometry x="462.5" y="400" width="60" height="70" as="geometry" />
        </mxCell>
        <mxCell id="1U4nZc6JwYDM5h0k5hcb-20" value="Indexes" style="rounded=0;whiteSpace=wrap;html=1;" vertex="1" parent="1">
          <mxGeometry x="537.5" y="400" width="60" height="70" as="geometry" />
        </mxCell>
        <mxCell id="1U4nZc6JwYDM5h0k5hcb-27" value="" style="rounded=0;whiteSpace=wrap;html=1;" vertex="1" parent="1">
          <mxGeometry x="447.5" y="230" width="165" height="100" as="geometry" />
        </mxCell>
        <mxCell id="1U4nZc6JwYDM5h0k5hcb-28" value="Tables" style="rounded=0;whiteSpace=wrap;html=1;" vertex="1" parent="1">
          <mxGeometry x="462.5" y="250" width="60" height="70" as="geometry" />
        </mxCell>
        <mxCell id="1U4nZc6JwYDM5h0k5hcb-29" value="Indexes" style="rounded=0;whiteSpace=wrap;html=1;" vertex="1" parent="1">
          <mxGeometry x="537.5" y="250" width="60" height="70" as="geometry" />
        </mxCell>
        <mxCell id="1U4nZc6JwYDM5h0k5hcb-31" value="" style="rounded=0;whiteSpace=wrap;html=1;" vertex="1" parent="1">
          <mxGeometry x="237.5" y="220" width="165" height="110" as="geometry" />
        </mxCell>
        <mxCell id="1U4nZc6JwYDM5h0k5hcb-32" value="TX&lt;div&gt;Code&lt;/div&gt;" style="rounded=0;whiteSpace=wrap;html=1;" vertex="1" parent="1">
          <mxGeometry x="252.5" y="230" width="60" height="90" as="geometry" />
        </mxCell>
        <mxCell id="1U4nZc6JwYDM5h0k5hcb-33" value="GPU&lt;div&gt;Operators&lt;/div&gt;" style="rounded=0;whiteSpace=wrap;html=1;" vertex="1" parent="1">
          <mxGeometry x="327.5" y="230" width="60" height="90" as="geometry" />
        </mxCell>
        <mxCell id="1U4nZc6JwYDM5h0k5hcb-35" value="" style="rounded=1;whiteSpace=wrap;html=1;" vertex="1" parent="1">
          <mxGeometry x="210" y="40" width="540" height="80" as="geometry" />
        </mxCell>
        <mxCell id="1U4nZc6JwYDM5h0k5hcb-36" value="Table Generator" style="rounded=1;whiteSpace=wrap;html=1;" vertex="1" parent="1">
          <mxGeometry x="263.5" y="70" width="113" height="40" as="geometry" />
        </mxCell>
        <mxCell id="1U4nZc6JwYDM5h0k5hcb-37" value="Index Generator" style="rounded=1;whiteSpace=wrap;html=1;" vertex="1" parent="1">
          <mxGeometry x="423.5" y="70" width="113" height="40" as="geometry" />
        </mxCell>
        <mxCell id="1U4nZc6JwYDM5h0k5hcb-38" value="TX Processor" style="rounded=1;whiteSpace=wrap;html=1;" vertex="1" parent="1">
          <mxGeometry x="582.5" y="70" width="113" height="40" as="geometry" />
        </mxCell>
        <mxCell id="1U4nZc6JwYDM5h0k5hcb-39" value="Batch Info" style="rounded=0;whiteSpace=wrap;html=1;" vertex="1" parent="1">
          <mxGeometry x="690" y="258.75" width="60" height="32.5" as="geometry" />
        </mxCell>
        <mxCell id="1U4nZc6JwYDM5h0k5hcb-40" value="TXs" style="rounded=0;whiteSpace=wrap;html=1;" vertex="1" parent="1">
          <mxGeometry x="620" y="258.75" width="60" height="32.5" as="geometry" />
        </mxCell>
        <mxCell id="1U4nZc6JwYDM5h0k5hcb-41" value="GPU Executor" style="text;html=1;align=center;verticalAlign=middle;whiteSpace=wrap;rounded=0;" vertex="1" parent="1">
          <mxGeometry x="220" y="40" width="80" height="30" as="geometry" />
        </mxCell>
        <mxCell id="1U4nZc6JwYDM5h0k5hcb-45" value="" style="endArrow=classic;html=1;rounded=0;exitX=0.5;exitY=0;exitDx=0;exitDy=0;entryX=0.5;entryY=1;entryDx=0;entryDy=0;" edge="1" parent="1" source="1U4nZc6JwYDM5h0k5hcb-14" target="1U4nZc6JwYDM5h0k5hcb-31">
          <mxGeometry width="50" height="50" relative="1" as="geometry">
            <mxPoint x="460" y="490" as="sourcePoint" />
            <mxPoint x="510" y="440" as="targetPoint" />
          </mxGeometry>
        </mxCell>
        <mxCell id="1U4nZc6JwYDM5h0k5hcb-46" value="" style="endArrow=classic;startArrow=classic;html=1;rounded=0;entryX=0.5;entryY=1;entryDx=0;entryDy=0;" edge="1" parent="1" source="1U4nZc6JwYDM5h0k5hcb-18" target="1U4nZc6JwYDM5h0k5hcb-27">
          <mxGeometry width="50" height="50" relative="1" as="geometry">
            <mxPoint x="460" y="490" as="sourcePoint" />
            <mxPoint x="510" y="440" as="targetPoint" />
          </mxGeometry>
        </mxCell>
        <mxCell id="1U4nZc6JwYDM5h0k5hcb-47" value="" style="endArrow=classic;html=1;rounded=0;entryX=0.5;entryY=1;entryDx=0;entryDy=0;" edge="1" parent="1" target="1U4nZc6JwYDM5h0k5hcb-8">
          <mxGeometry width="50" height="50" relative="1" as="geometry">
            <mxPoint x="560" y="690" as="sourcePoint" />
            <mxPoint x="510" y="440" as="targetPoint" />
          </mxGeometry>
        </mxCell>
        <mxCell id="1U4nZc6JwYDM5h0k5hcb-63" value="&lt;div style=&quot;font-size: 12px; text-align: left; text-wrap: wrap; background-color: rgb(251, 251, 251);&quot;&gt;&lt;br&gt;&lt;/div&gt;" style="edgeLabel;html=1;align=center;verticalAlign=middle;resizable=0;points=[];" vertex="1" connectable="0" parent="1U4nZc6JwYDM5h0k5hcb-47">
          <mxGeometry x="-0.0605" y="1" relative="1" as="geometry">
            <mxPoint as="offset" />
          </mxGeometry>
        </mxCell>
        <mxCell id="1U4nZc6JwYDM5h0k5hcb-70" value="Benchmark Info" style="edgeLabel;html=1;align=center;verticalAlign=middle;resizable=0;points=[];" vertex="1" connectable="0" parent="1U4nZc6JwYDM5h0k5hcb-47">
          <mxGeometry x="-0.1522" y="-1" relative="1" as="geometry">
            <mxPoint as="offset" />
          </mxGeometry>
        </mxCell>
        <mxCell id="1U4nZc6JwYDM5h0k5hcb-48" value="" style="endArrow=classic;html=1;rounded=0;exitX=0.5;exitY=0;exitDx=0;exitDy=0;entryX=0.5;entryY=1;entryDx=0;entryDy=0;" edge="1" parent="1" source="1U4nZc6JwYDM5h0k5hcb-1" target="1U4nZc6JwYDM5h0k5hcb-2">
          <mxGeometry width="50" height="50" relative="1" as="geometry">
            <mxPoint x="460" y="670" as="sourcePoint" />
            <mxPoint x="510" y="620" as="targetPoint" />
          </mxGeometry>
        </mxCell>
        <mxCell id="1U4nZc6JwYDM5h0k5hcb-49" value="" style="endArrow=classic;html=1;rounded=0;entryX=0.75;entryY=1;entryDx=0;entryDy=0;" edge="1" parent="1">
          <mxGeometry width="50" height="50" relative="1" as="geometry">
            <mxPoint x="386.67" y="690" as="sourcePoint" />
            <mxPoint x="386.82" y="480" as="targetPoint" />
          </mxGeometry>
        </mxCell>
        <mxCell id="1U4nZc6JwYDM5h0k5hcb-69" value="CC Scheme Selection&lt;div&gt;Benchmark Info&lt;/div&gt;" style="edgeLabel;html=1;align=center;verticalAlign=middle;resizable=0;points=[];" vertex="1" connectable="0" parent="1U4nZc6JwYDM5h0k5hcb-49">
          <mxGeometry x="-0.1347" y="-5" relative="1" as="geometry">
            <mxPoint as="offset" />
          </mxGeometry>
        </mxCell>
        <mxCell id="1U4nZc6JwYDM5h0k5hcb-50" value="" style="endArrow=classic;html=1;rounded=0;exitX=0.5;exitY=0;exitDx=0;exitDy=0;entryX=0.25;entryY=1;entryDx=0;entryDy=0;" edge="1" parent="1" source="1U4nZc6JwYDM5h0k5hcb-13" target="1U4nZc6JwYDM5h0k5hcb-8">
          <mxGeometry width="50" height="50" relative="1" as="geometry">
            <mxPoint x="460" y="490" as="sourcePoint" />
            <mxPoint x="510" y="440" as="targetPoint" />
          </mxGeometry>
        </mxCell>
        <mxCell id="1U4nZc6JwYDM5h0k5hcb-51" value="" style="endArrow=classic;html=1;rounded=0;entryX=0.5;entryY=1;entryDx=0;entryDy=0;" edge="1" parent="1" target="1U4nZc6JwYDM5h0k5hcb-18">
          <mxGeometry width="50" height="50" relative="1" as="geometry">
            <mxPoint x="530" y="510" as="sourcePoint" />
            <mxPoint x="510" y="440" as="targetPoint" />
          </mxGeometry>
        </mxCell>
        <mxCell id="1U4nZc6JwYDM5h0k5hcb-76" value="Table &amp;amp; Indexes Generation" style="edgeLabel;html=1;align=center;verticalAlign=middle;resizable=0;points=[];" vertex="1" connectable="0" parent="1U4nZc6JwYDM5h0k5hcb-51">
          <mxGeometry x="-0.0857" y="2" relative="1" as="geometry">
            <mxPoint as="offset" />
          </mxGeometry>
        </mxCell>
        <mxCell id="1U4nZc6JwYDM5h0k5hcb-52" value="" style="endArrow=classic;html=1;rounded=0;exitX=0.5;exitY=0;exitDx=0;exitDy=0;" edge="1" parent="1" source="1U4nZc6JwYDM5h0k5hcb-31">
          <mxGeometry width="50" height="50" relative="1" as="geometry">
            <mxPoint x="320" y="150" as="sourcePoint" />
            <mxPoint x="320" y="120" as="targetPoint" />
          </mxGeometry>
        </mxCell>
        <mxCell id="1U4nZc6JwYDM5h0k5hcb-54" value="" style="endArrow=classic;html=1;rounded=0;exitX=0.905;exitY=0.006;exitDx=0;exitDy=0;exitPerimeter=0;entryX=0.5;entryY=1;entryDx=0;entryDy=0;" edge="1" parent="1" source="1U4nZc6JwYDM5h0k5hcb-8" target="1U4nZc6JwYDM5h0k5hcb-40">
          <mxGeometry width="50" height="50" relative="1" as="geometry">
            <mxPoint x="480" y="390" as="sourcePoint" />
            <mxPoint x="530" y="340" as="targetPoint" />
          </mxGeometry>
        </mxCell>
        <mxCell id="1U4nZc6JwYDM5h0k5hcb-77" value="TX Generation" style="edgeLabel;html=1;align=center;verticalAlign=middle;resizable=0;points=[];" vertex="1" connectable="0" parent="1U4nZc6JwYDM5h0k5hcb-54">
          <mxGeometry x="-0.1581" y="2" relative="1" as="geometry">
            <mxPoint as="offset" />
          </mxGeometry>
        </mxCell>
        <mxCell id="1U4nZc6JwYDM5h0k5hcb-55" value="" style="endArrow=classic;html=1;rounded=0;exitX=0.5;exitY=0;exitDx=0;exitDy=0;entryX=0.814;entryY=1.008;entryDx=0;entryDy=0;entryPerimeter=0;" edge="1" parent="1" source="1U4nZc6JwYDM5h0k5hcb-40" target="1U4nZc6JwYDM5h0k5hcb-35">
          <mxGeometry width="50" height="50" relative="1" as="geometry">
            <mxPoint x="640" y="390" as="sourcePoint" />
            <mxPoint x="650" y="190" as="targetPoint" />
          </mxGeometry>
        </mxCell>
        <mxCell id="1U4nZc6JwYDM5h0k5hcb-56" value="" style="endArrow=classic;html=1;rounded=0;exitX=0.5;exitY=0;exitDx=0;exitDy=0;entryX=0.945;entryY=1.005;entryDx=0;entryDy=0;entryPerimeter=0;" edge="1" parent="1" source="1U4nZc6JwYDM5h0k5hcb-39" target="1U4nZc6JwYDM5h0k5hcb-35">
          <mxGeometry width="50" height="50" relative="1" as="geometry">
            <mxPoint x="640" y="390" as="sourcePoint" />
            <mxPoint x="720" y="190" as="targetPoint" />
          </mxGeometry>
        </mxCell>
        <mxCell id="1U4nZc6JwYDM5h0k5hcb-57" value="" style="endArrow=classic;html=1;rounded=0;entryX=0.5;entryY=1;entryDx=0;entryDy=0;" edge="1" parent="1" target="1U4nZc6JwYDM5h0k5hcb-39">
          <mxGeometry width="50" height="50" relative="1" as="geometry">
            <mxPoint x="720" y="689" as="sourcePoint" />
            <mxPoint x="690" y="460" as="targetPoint" />
          </mxGeometry>
        </mxCell>
        <mxCell id="1U4nZc6JwYDM5h0k5hcb-58" value="" style="endArrow=none;dashed=1;html=1;rounded=0;strokeWidth=2;" edge="1" parent="1">
          <mxGeometry width="50" height="50" relative="1" as="geometry">
            <mxPoint x="200" y="350" as="sourcePoint" />
            <mxPoint x="770" y="350" as="targetPoint" />
          </mxGeometry>
        </mxCell>
        <mxCell id="1U4nZc6JwYDM5h0k5hcb-59" value="GPU&lt;div style=&quot;font-size: 15px;&quot;&gt;Side&lt;/div&gt;" style="text;html=1;align=center;verticalAlign=middle;whiteSpace=wrap;rounded=0;fontStyle=1;fontSize=15;" vertex="1" parent="1">
          <mxGeometry x="177.5" y="300" width="60" height="30" as="geometry" />
        </mxCell>
        <mxCell id="1U4nZc6JwYDM5h0k5hcb-60" value="CPU&lt;div style=&quot;font-size: 15px;&quot;&gt;Side&lt;/div&gt;" style="text;html=1;align=center;verticalAlign=middle;whiteSpace=wrap;rounded=0;fontStyle=1;fontSize=15;" vertex="1" parent="1">
          <mxGeometry x="177.5" y="370" width="60" height="30" as="geometry" />
        </mxCell>
        <mxCell id="1U4nZc6JwYDM5h0k5hcb-67" value="&lt;b&gt;Performance&amp;nbsp;Info&lt;/b&gt;:&lt;div&gt;&lt;span style=&quot;white-space: pre;&quot;&gt;&#x9;&lt;/span&gt;Throughput&lt;br&gt;&lt;/div&gt;&lt;div&gt;&lt;span style=&quot;white-space: pre;&quot;&gt;&#x9;&lt;/span&gt;Abort Rate&lt;br&gt;&lt;/div&gt;&lt;div&gt;&lt;span style=&quot;white-space: pre;&quot;&gt;&#x9;&lt;/span&gt;Execution Time&amp;nbsp;&lt;br&gt;&lt;/div&gt;&lt;div&gt;&lt;span style=&quot;white-space: pre;&quot;&gt;&#x9;&lt;/span&gt;&lt;br&gt;&lt;/div&gt;" style="rounded=0;whiteSpace=wrap;html=1;align=left;" vertex="1" parent="1">
          <mxGeometry x="810" y="30" width="200" height="100" as="geometry" />
        </mxCell>
        <mxCell id="1U4nZc6JwYDM5h0k5hcb-68" value="" style="endArrow=classic;html=1;rounded=0;exitX=1;exitY=0.5;exitDx=0;exitDy=0;entryX=0;entryY=0.5;entryDx=0;entryDy=0;" edge="1" parent="1" source="1U4nZc6JwYDM5h0k5hcb-35" target="1U4nZc6JwYDM5h0k5hcb-67">
          <mxGeometry width="50" height="50" relative="1" as="geometry">
            <mxPoint x="430" y="380" as="sourcePoint" />
            <mxPoint x="480" y="330" as="targetPoint" />
          </mxGeometry>
        </mxCell>
        <mxCell id="1U4nZc6JwYDM5h0k5hcb-71" value="" style="endArrow=classic;html=1;rounded=0;exitX=0.5;exitY=1;exitDx=0;exitDy=0;entryX=0.339;entryY=0.007;entryDx=0;entryDy=0;entryPerimeter=0;" edge="1" parent="1" source="1U4nZc6JwYDM5h0k5hcb-35" target="1U4nZc6JwYDM5h0k5hcb-27">
          <mxGeometry width="50" height="50" relative="1" as="geometry">
            <mxPoint x="550" y="380" as="sourcePoint" />
            <mxPoint x="600" y="330" as="targetPoint" />
          </mxGeometry>
        </mxCell>
        <mxCell id="1U4nZc6JwYDM5h0k5hcb-72" value="Table &amp;amp; Indexes&lt;div&gt;Generation&lt;/div&gt;" style="edgeLabel;html=1;align=center;verticalAlign=middle;resizable=0;points=[];" vertex="1" connectable="0" parent="1U4nZc6JwYDM5h0k5hcb-71">
          <mxGeometry x="-0.2254" y="-2" relative="1" as="geometry">
            <mxPoint as="offset" />
          </mxGeometry>
        </mxCell>
        <mxCell id="1U4nZc6JwYDM5h0k5hcb-73" value="" style="endArrow=classic;startArrow=classic;html=1;rounded=0;entryX=0.5;entryY=1;entryDx=0;entryDy=0;exitX=0.5;exitY=0;exitDx=0;exitDy=0;" edge="1" parent="1" source="1U4nZc6JwYDM5h0k5hcb-27" target="1U4nZc6JwYDM5h0k5hcb-38">
          <mxGeometry width="50" height="50" relative="1" as="geometry">
            <mxPoint x="540" y="210" as="sourcePoint" />
            <mxPoint x="590" y="160" as="targetPoint" />
          </mxGeometry>
        </mxCell>
        <mxCell id="1U4nZc6JwYDM5h0k5hcb-75" value="TX Execution" style="edgeLabel;html=1;align=center;verticalAlign=middle;resizable=0;points=[];" vertex="1" connectable="0" parent="1U4nZc6JwYDM5h0k5hcb-73">
          <mxGeometry x="-0.0645" y="4" relative="1" as="geometry">
            <mxPoint as="offset" />
          </mxGeometry>
        </mxCell>
      </root>
    </mxGraphModel>
  </diagram>
</mxfile>
